<svg fill="#fff" viewBox="0 0 409.6 409.6" xmlns="http://www.w3.org/2000/svg"><path d="m204.800781 409.601562c-112.925781 0-204.800781-91.875-204.800781-204.800781s91.875-204.800781 204.800781-204.800781 204.800781 91.875 204.800781 204.800781-91.875 204.800781-204.800781 204.800781zm0-395.949218c-105.402343 0-191.148437 85.746094-191.148437 191.148437 0 105.398438 85.746094 191.144531 191.148437 191.144531 105.398438 0 191.144531-85.746093 191.144531-191.144531 0-105.402343-85.746093-191.148437-191.144531-191.148437zm0 0"/><path d="m204.800781 389.121094c-101.632812 0-184.320312-82.6875-184.320312-184.320313 0-101.632812 82.6875-184.320312 184.320312-184.320312 101.632813 0 184.320313 82.6875 184.320313 184.320312 0 101.632813-82.6875 184.320313-184.320313 184.320313zm0-354.988282c-94.109375 0-170.667969 76.558594-170.667969 170.667969 0 94.105469 76.558594 170.664063 170.667969 170.664063 94.105469 0 170.664063-76.558594 170.664063-170.664063 0-94.109375-76.558594-170.667969-170.664063-170.667969zm0 0"/><path d="m262.125 342.71875c-11.859375 0-23.578125-3.480469-33.910156-10.292969-22.695313-14.945312-32.972656-44.480469-24.449219-70.226562 3.796875-11.464844 10.703125-21.445313 19.980469-28.867188 5.507812-4.40625 8.636718-11.679687 8.375-19.457031l-.449219-13.148438c-.25-7.425781-4.519531-14.132812-11.136719-17.511718-6.914062-3.554688-14.847656-3.089844-21.019531 1.050781l-4.667969 3.136719c-7.011718 4.699218-11.226562 12.5625-10.988281 20.523437.375 12.585938-3.125 24.894531-10.113281 35.574219-15.496094 23.695312-45.992188 33.707031-72.5 23.878906-18.0625-6.71875-31.710938-21.039062-37.4375-39.304687-5.726563-18.261719-2.691406-37.828125 8.324218-53.6875 13.101563-18.875 36.480469-28.8125 59.5625-25.359375 5.808594.875 11.402344 2.53125 16.621094 4.941406 8.460938 3.925781 17.828125 3.367188 25.066406-1.492188l1.941407-1.300781c7.347656-4.929687 11.683593-13.242187 11.605469-22.253906-.074219-9.835937 2.257812-19.671875 6.753906-28.460937 8.398437-16.398438 23.539062-28.074219 41.546875-32.027344 17.980469-3.964844 36.765625.40625 51.511719 11.96875 19.347656 15.164062 27.699218 41.21875 20.789062 64.832031-4.082031 13.914063-12.394531 25.554687-24.035156 33.644531-7.085938 4.921875-11.132813 13.15625-10.832032 22.027344l.085938 2.488281c.320312 9.347657 6.289062 17.867188 15.589844 22.230469 4.945312 2.328125 9.636718 5.355469 13.945312 8.988281 18.167969 15.355469 25.785156 40.996094 18.953125 63.789063-5.714843 19.078125-19.582031 33.863281-38.039062 40.578125-6.894531 2.5-14.007813 3.738281-21.074219 3.738281zm-51.226562-175.566406c5.328124 0 10.667968 1.246094 15.574218 3.765625 11.308594 5.769531 18.425782 16.960937 18.839844 29.347656l.449219 13.140625c.410156 12.066406-4.628907 23.5-13.488281 30.59375-7.207032 5.757812-12.578126 13.539062-15.546876 22.492188-6.617187 19.988281 1.367188 42.917968 18.996094 54.535156 12.859375 8.464844 28.472656 10.332031 42.8125 5.117187 14.359375-5.21875 25.152344-16.757812 29.617188-31.667969 5.300781-17.664062-.605469-37.53125-14.683594-49.4375-3.386719-2.863281-7.074219-5.234374-10.945312-7.054687-13.957032-6.566406-22.929688-19.640625-23.414063-34.121094l-.089844-2.484375c-.460937-13.535156 5.773438-26.132812 16.679688-33.714844 9.054687-6.292968 15.527343-15.378906 18.722656-26.273437 5.359375-18.300781-1.113281-38.492187-16.109375-50.246094-11.511719-9.035156-26.125-12.460937-40.160156-9.378906-14.003906 3.078125-25.785156 12.160156-32.320313 24.914063-3.492187 6.839843-5.3125 14.484374-5.253906 22.125.121094 13.613281-6.480469 26.21875-17.652344 33.707031l-1.945312 1.300781c-11.230469 7.535156-25.582031 8.496094-38.402344 2.546875-4.03125-1.859375-8.375-3.152344-12.910156-3.828125-17.980469-2.699219-36.164063 5.007812-46.328125 19.640625-8.585938 12.367187-10.960938 27.613281-6.503906 41.820313 4.453124 14.199218 15.082031 25.355468 29.167968 30.585937 20.59375 7.660156 44.273438-.144531 56.3125-18.550781 5.453125-8.335938 8.183594-17.914063 7.894532-27.699219-.375-12.609375 6.152343-24.972656 17.035156-32.273437l4.664062-3.125c5.714844-3.835938 12.34375-5.777344 18.988282-5.777344zm0 0"/></svg>